<svg width="48" height="48" viewBox="0 0 48 48" fill="none" xmlns="http://www.w3.org/2000/svg">
<path d="M30.008 35.289H27.008V44.976H30.008V35.289Z" fill="#F5BC00"/>
<path d="M35.985 35.289H32.985V44.976H35.985V35.289Z" fill="#F5BC00"/>
<path d="M45.922 9.116C45.922 5.721 43.17 2.969 39.775 2.969H37.994C34.69 2.969 32.012 5.647 32.012 8.951V16.3L1.81201 44.031H11.828L17.14 39.004C17.14 39.004 29.179 38.992 29.586 38.992C38.975 38.992 45.921 29.467 45.921 20.078C45.922 19.877 45.922 9.116 45.922 9.116Z" fill="#6C19FF"/>
<path d="M38.497 10.023C39.3254 10.023 39.997 9.35143 39.997 8.523C39.997 7.69458 39.3254 7.023 38.497 7.023C37.6686 7.023 36.997 7.69458 36.997 8.523C36.997 9.35143 37.6686 10.023 38.497 10.023Z" fill="#2100C4"/>
<path d="M31.953 13L24.002 13.012V12.969C24.002 10.208 27.25 7.879 29.002 8.02H32.046L36.054 11.993L31.953 13Z" fill="#F5BC00"/>
<path d="M32.023 22.369V16.297L12.734 33.992H20.381C26.802 33.992 32.023 28.789 32.023 22.369Z" fill="#2100C4"/>
<path d="M32.086 8.058C32.042 8.35 32.012 8.647 32.012 8.951V12.986L36.055 11.993L32.086 8.058Z" fill="#EB7900"/>
</svg>
